# xmcd
#
# Track frame offsets: 
#        150
#        18833
#        40063
#        60667
#        83889
#        103258
#        122565
#        143222
#        156365
#        174688
#
# Disc length: 2621 seconds
#
# Revision: 0
# Processed by: cddbd v1.5.2PL0 Copyright (c) Steve Scherf et al.
# Submitted via: ExactAudioCopy v0.99pb4
#
DISCID=810a3b0a
DTITLE=Ben E. King - Soul Remix
DYEAR=2005
DGENRE=Soul
TTITLE0=You've Got All Of Me
TTITLE1=It's All Right
TTITLE2=So Important To Me
TTITLE3=You Still Move Me
TTITLE4=I'm Gonna Be Somebody
TTITLE5=She's Gone Again
TTITLE6=It's Your Love (That Makes Me Happy)
TTITLE7=You Can Count On Me (Acoustic Piano Mix)
TTITLE8=You've Got All Of Me (Acoustic Piano Mix)
TTITLE9=Stand By Me (Live Version)
EXTD=
EXTT0=
EXTT1=
EXTT2=
EXTT3=
EXTT4=
EXTT5=
EXTT6=
EXTT7=
EXTT8=
EXTT9=
PLAYORDER=
